HIERARCHY
ROOT Hips
{
	OFFSET	0.00	0.00	0.00
	CHANNELS 6 Xposition Yposition Zposition Zrotation Xrotation Yrotation
	JOINT LeftUpLeg
	{
		OFFSET	 0.126116	-0.014019	-0.065224
		CHANNELS 3 Zrotation Xrotation Yrotation
		JOINT LeftLeg
		{
			OFFSET	 0.000000	 0.000000	 0.569914
			CHANNELS 3 Zrotation Xrotation Yrotation
			JOINT LeftFoot
			{
				OFFSET	 0.000000	 0.000000	 0.544423
				CHANNELS 3 Zrotation Xrotation Yrotation
				JOINT LeftToeBase
				{
					OFFSET	 0.000000	 0.000000	 0.207117
					CHANNELS 3 Zrotation Xrotation Yrotation
					End Site
					{
						OFFSET	 0.000000	 0.000000	 0.207117
					}
				}
			}
		}
	}
	JOINT RightUpLeg
	{
		OFFSET	-0.124023	-0.008373	-0.065224
		CHANNELS 3 Zrotation Xrotation Yrotation
		JOINT RightLeg
		{
			OFFSET	 0.000000	 0.000000	 0.570047
			CHANNELS 3 Zrotation Xrotation Yrotation
			JOINT RightFoot
			{
				OFFSET	 0.000000	 0.000000	 0.544354
				CHANNELS 3 Zrotation Xrotation Yrotation
				JOINT RightToeBase
				{
					OFFSET	 0.000000	 0.000000	 0.207540
					CHANNELS 3 Zrotation Xrotation Yrotation
					End Site
					{
						OFFSET	 0.000000	 0.000000	 0.207540
					}
				}
			}
		}
	}
	JOINT Spine
	{
		OFFSET	 0.000184	-0.007763	 0.117403
		CHANNELS 3 Zrotation Xrotation Yrotation
		JOINT Spine1
		{
			OFFSET	 0.000000	 0.000000	 0.137269
			CHANNELS 3 Zrotation Xrotation Yrotation
			JOINT Spine2
			{
				OFFSET	 0.000000	 0.000000	 0.156879
				CHANNELS 3 Zrotation Xrotation Yrotation
				JOINT LeftShoulder
				{
					OFFSET	 0.080501	-0.002496	 0.160144
					CHANNELS 3 Zrotation Xrotation Yrotation
					JOINT LeftArm
					{
						OFFSET	 0.000000	 0.000000	 0.164363
						CHANNELS 3 Zrotation Xrotation Yrotation
						JOINT LeftForeArm
						{
							OFFSET	 0.000000	 0.000000	 0.364576
							CHANNELS 3 Zrotation Xrotation Yrotation
							JOINT LeftHand
							{
								OFFSET	 0.000000	 0.000000	 0.360812
								CHANNELS 3 Zrotation Xrotation Yrotation
								JOINT LeftHandIndex1
								{
									OFFSET	 0.000000	 0.000000	 0.086006
									CHANNELS 3 Zrotation Xrotation Yrotation
									JOINT LeftHandIndex2
									{
										OFFSET	 0.000000	 0.000000	 0.047236
										CHANNELS 3 Zrotation Xrotation Yrotation
										JOINT LeftHandIndex3
										{
											OFFSET	-0.004284	-0.000551	 0.038166
											CHANNELS 3 Zrotation Xrotation Yrotation
											End Site
											{
												OFFSET	-0.004284	-0.000551	 0.038166
											}
										}
									}
								}
							}
						}
					}
				}
				JOINT Neck
				{
					OFFSET	 0.000000	 0.000000	 0.176489
					CHANNELS 3 Zrotation Xrotation Yrotation
					JOINT Head
					{
						OFFSET	 0.000000	-0.001747	 0.077940
						CHANNELS 3 Zrotation Xrotation Yrotation
						End Site
						{
							OFFSET	 0.000000	-0.001747	 0.077940
						}
					}
				}
				JOINT RightShoulder
				{
					OFFSET	-0.080363	 0.000306	 0.159706
					CHANNELS 3 Zrotation Xrotation Yrotation
					JOINT RightArm
					{
						OFFSET	 0.000000	 0.000000	 0.164196
						CHANNELS 3 Zrotation Xrotation Yrotation
						JOINT RightForeArm
						{
							OFFSET	 0.000000	 0.000000	 0.365611
							CHANNELS 3 Zrotation Xrotation Yrotation
							JOINT RightHand
							{
								OFFSET	 0.000000	 0.000000	 0.360648
								CHANNELS 3 Zrotation Xrotation Yrotation
								JOINT RightHandIndex1
								{
									OFFSET	 0.000000	 0.000000	 0.069977
									CHANNELS 3 Zrotation Xrotation Yrotation
									JOINT RightHandIndex2
									{
										OFFSET	 0.000000	 0.000000	 0.052305
										CHANNELS 3 Zrotation Xrotation Yrotation
										JOINT RightHandIndex3
										{
											OFFSET	 0.009002	-0.000782	 0.042196
											CHANNELS 3 Zrotation Xrotation Yrotation
											End Site
											{
												OFFSET	 0.009002	-0.000782	 0.042196
											}
										}
									}
								}
							}
						}
					}
				}
			}
		}
	}
}
MOTION
Frames:    5
Frame Time: 0.03333334
 0.000077	 0.048264	 1.228554	-0.001903	 0.005219	 0.123043	 9.599333	-13.400650	 177.195800	 0.874963	-33.816440	-2.208480	-22.913960	 80.782680	 17.404630	-2.385833	 28.452760	 0.000004	-9.783213	-14.806470	-177.643400	-0.858648	-34.120170	 2.192818	 19.226410	 79.921880	-13.791110	 2.384658	 28.388730	 0.000004	-9.901242	 2.695473	 0.234145	-1.512142	 3.740833	-0.558549	 4.583209	-4.689665	 0.992663	-91.776150	 78.527430	 180.000000	 54.054000	 38.319090	-48.828350	-25.482860	 3.566223	-10.678070	-28.673010	 1.082787	-4.249666	-2.635965	 4.993658	 6.788941	-5.165319	 0.784187	 3.516649	-5.225038	 0.466231	 0.424329	-0.000002	-3.783157	-0.089647	 4.454454	 4.808640	-0.187140	 89.782110	 78.203890	 180.000000	 4.996346	 13.295160	 96.605460	-17.352150	 3.057600	 17.653790	 3.591732	 0.579681	-6.106981	 6.112037	 4.509576	-0.364401	 4.968462	 1.518543	-9.347576	 5.168945	 0.703820	 2.021906
-0.000023	 0.050076	 1.229509	-0.002690	 0.007094	 0.100272	 9.614044	-13.254350	 177.211200	 0.890898	-33.470180	-2.179716	-22.360350	 80.602010	 16.843390	-2.385833	 28.452760	 0.000004	-9.784267	-14.772310	-177.631900	-0.871578	-33.838680	 2.169685	 18.647630	 79.702140	-13.200670	 2.384658	 28.388730	 0.000004	-7.005232	 2.683513	 0.189877	-1.133390	 3.772914	-0.417273	 3.443892	-4.770696	 0.748452	-91.776240	 78.527430	-180.000000	 54.194820	 38.333810	-48.945120	-25.710990	 3.655498	-10.804320	-28.671130	 1.083045	-4.249378	-2.635965	 4.993658	 6.788941	-5.165319	 0.784187	 3.516649	-5.225038	 0.466231	 0.424329	-0.000002	-3.783157	-0.089647	 3.345520	 4.883492	-0.142714	 89.782100	 78.203890	 180.000000	 5.021454	 13.509030	 96.648450	-17.291370	 3.153320	 17.787360	 3.605895	 0.455926	-6.172713	 6.112037	 4.509576	-0.364401	 4.968462	 1.518543	-9.347576	 5.168945	 0.703820	 2.021906
-0.000122	 0.051847	 1.230384	-0.003282	 0.007957	 0.069674	 9.629684	-13.114030	 177.234600	 0.905741	-33.142170	-2.152684	-21.854480	 80.429400	 16.330330	-2.385833	 28.452760	 0.000004	-9.782999	-14.749660	-177.613500	-0.883116	-33.584060	 2.148893	 18.122350	 79.496090	-12.664080	 2.384658	 28.388730	 0.000004	-3.650510	 2.673949	 0.179324	-0.694427	 3.800136	-0.319922	 2.132442	-4.832973	 0.493927	-91.776120	 78.527470	 179.999900	 54.404910	 38.364100	-49.166090	-25.927680	 3.740643	-10.922850	-28.679500	 1.081890	-4.250688	-2.635965	 4.993658	 6.788941	-5.165319	 0.784187	 3.516649	-5.225038	 0.466231	 0.424329	-0.000002	-3.783157	-0.089647	 2.069733	 4.944806	-0.089391	 89.782070	 78.203890	-180.000000	 4.939594	 13.763860	 96.641520	-17.261030	 3.241163	 17.944050	 3.652970	 0.360551	-6.234998	 6.112037	 4.509576	-0.364401	 4.968462	 1.518543	-9.347576	 5.168945	 0.703820	 2.021906
-0.000236	 0.053639	 1.231159	-0.001077	 0.011517	 0.033999	 9.642163	-12.990940	 177.262100	 0.919070	-32.843090	-2.128208	-21.412360	 80.267400	 15.882510	-2.385833	 28.452760	 0.000004	-9.782229	-14.756070	-177.592200	-0.892385	-33.377290	 2.132094	 17.659470	 79.310040	-12.190680	 2.384658	 28.388730	 0.000004	 0.241644	 2.670247	 0.111271	-0.205400	 3.805769	-0.095633	 0.649559	-4.863196	 0.150732	-91.776230	 78.527450	-180.000000	 54.690170	 38.417630	-49.507950	-26.121480	 3.819342	-11.030630	-28.699650	 1.079256	-4.253952	-2.635965	 4.993658	 6.788941	-5.165319	 0.784187	 3.516649	-5.225038	 0.466231	 0.424329	-0.000002	-3.783157	-0.089647	 0.633986	 4.979877	-0.027583	 89.782140	 78.203900	 180.000000	 4.839695	 13.974200	 97.288800	-17.180820	 3.353663	 16.749820	 3.049788	 0.557245	-6.266591	 6.112037	 4.509576	-0.364401	 4.968462	 1.518543	-9.347576	 5.168945	 0.703820	 2.021906
-0.000323	 0.055468	 1.231904	 0.001034	 0.011403	-0.012551	 9.657325	-12.861970	 177.301300	 0.932220	-32.543540	-2.103860	-20.977730	 80.105350	 15.441640	-2.385833	 28.452760	 0.000004	-9.778725	-14.764170	-177.561400	-0.901403	-33.173980	 2.115656	 17.204430	 79.123760	-11.724470	 2.384658	 28.388730	 0.000004	 4.586645	 2.673586	 0.044166	 0.309877	 3.802394	 0.150346	-0.914535	-4.855336	-0.216260	-91.776230	 78.527430	-180.000000	 55.054010	 38.512650	-49.999450	-26.268430	 3.877058	-11.109080	-28.733680	 1.074777	-4.259432	-2.635965	 4.993658	 6.788941	-5.165319	 0.784187	 3.516649	-5.225038	 0.466231	 0.424329	-0.000002	-3.783157	-0.089647	-0.879333	 4.976759	 0.038200	 89.782140	 78.203870	 180.000000	 4.160985	 14.733800	 96.804400	-16.628300	 3.464767	 17.475830	 1.839374	 0.761022	-6.214622	 6.112037	 4.509576	-0.364401	 4.968462	 1.518543	-9.347576	 5.168945	 0.703820	 2.021906
